<svg viewBox="278.44943101 0 58.96975 58.52" xmlns="http://www.w3.org/2000/svg" data-name="Layer 1" id="Layer_1" style="max-height: 500px" width="58.96975" height="58.52">
  <defs>
    <style>
      .cls-1{fill:#000000;}.cls-2{fill:#aa182c;}
    </style>
  </defs>
  <polygon points="278.93 17.39 292.02 17.39 303.69 29 291.95 40.66 278.93 40.66 290.45 28.96 278.93 17.39" class="cls-1"/>
  <polygon points="336.97 17.39 323.88 17.39 312.22 29 323.95 40.66 336.97 40.66 325.45 28.96 336.97 17.39" class="cls-1"/>
  <polygon points="319.59 0 319.59 13.09 307.98 24.76 296.32 13.02 296.32 0 308.01 11.52 319.59 0" class="cls-1"/>
  <polygon points="319.59 58.05 319.59 44.95 307.98 33.29 296.32 45.03 296.32 58.05 308.01 46.52 319.59 58.05" class="cls-1"/>
  <polygon points="303.69 28.98 292.01 17.39 290.35 17.39 302.02 28.99 290.28 40.66 291.95 40.66 303.69 29 303.68 28.99 303.69 28.98" class="cls-2"/>
  <polygon points="312.22 28.98 323.89 17.39 325.55 17.39 313.89 28.99 325.62 40.66 323.95 40.66 312.22 29 312.23 28.99 312.22 28.98" class="cls-2"/>
  <polygon points="307.91 33.29 296.32 44.96 296.32 46.63 307.92 34.96 319.59 46.69 319.59 45.03 307.93 33.29 307.92 33.3 307.91 33.29" class="cls-2"/>
  <polygon points="307.91 24.76 296.32 13.08 296.32 11.42 307.92 23.09 319.59 11.36 319.59 13.02 307.93 24.76 307.92 24.75 307.91 24.76" class="cls-2"/>
</svg>