<svg id="Layer_1" data-name="Layer 1" xmlns="http://www.w3.org/2000/svg" viewBox="0 0 336.97 58.52"><defs><style>.cls-1{fill:#231f20;}.cls-2{fill:#aa182c;}</style></defs><polygon class="cls-1" points="278.93 17.39 292.02 17.39 303.69 29 291.95 40.66 278.93 40.66 290.45 28.96 278.93 17.39"/><polygon class="cls-1" points="336.97 17.39 323.88 17.39 312.22 29 323.95 40.66 336.97 40.66 325.45 28.96 336.97 17.39"/><polygon class="cls-1" points="319.59 0 319.59 13.09 307.98 24.76 296.32 13.02 296.32 0 308.01 11.52 319.59 0"/><polygon class="cls-1" points="319.59 58.05 319.59 44.95 307.98 33.29 296.32 45.03 296.32 58.05 308.01 46.52 319.59 58.05"/><polygon class="cls-2" points="303.69 28.98 292.01 17.39 290.35 17.39 302.02 28.99 290.28 40.66 291.95 40.66 303.69 29 303.68 28.99 303.69 28.98"/><polygon class="cls-2" points="312.22 28.98 323.89 17.39 325.55 17.39 313.89 28.99 325.62 40.66 323.95 40.66 312.22 29 312.23 28.99 312.22 28.98"/><polygon class="cls-2" points="307.91 33.29 296.32 44.96 296.32 46.63 307.92 34.96 319.59 46.69 319.59 45.03 307.93 33.29 307.92 33.3 307.91 33.29"/><polygon class="cls-2" points="307.91 24.76 296.32 13.08 296.32 11.42 307.92 23.09 319.59 11.36 319.59 13.02 307.93 24.76 307.92 24.75 307.91 24.76"/><path class="cls-1" d="M19.16,45.19H12.93V12.41H1.71V7.07H30.37v5.34H19.16Z" transform="translate(-1.71 -4.62)"/><path class="cls-1" d="M44.15,45.71q-6.72,0-10.52-3.92T29.83,31q0-7.07,3.52-11.11a12.19,12.19,0,0,1,9.68-4q5.72,0,9,3.47t3.31,9.54v3.31H36.15a9.49,9.49,0,0,0,2.26,6.46,7.93,7.93,0,0,0,6,2.25,22.39,22.39,0,0,0,4.76-.48,25.38,25.38,0,0,0,4.73-1.6v5a19.22,19.22,0,0,1-4.54,1.51A28.25,28.25,0,0,1,44.15,45.71ZM43,20.47a6.16,6.16,0,0,0-4.68,1.85,8.84,8.84,0,0,0-2.1,5.4H49.34a8,8,0,0,0-1.72-5.41A5.87,5.87,0,0,0,43,20.47Z" transform="translate(-1.71 -4.62)"/><path class="cls-1" d="M74,45.71q-6.55,0-9.95-3.82t-3.4-11q0-7.28,3.55-11.19t10.29-3.91a19.33,19.33,0,0,1,8.22,1.69l-1.85,4.93a18.56,18.56,0,0,0-6.42-1.51q-7.49,0-7.48,9.93,0,4.86,1.86,7.29a6.43,6.43,0,0,0,5.46,2.44,15.77,15.77,0,0,0,7.75-2v5.34a12.08,12.08,0,0,1-3.51,1.39A21.59,21.59,0,0,1,74,45.71Z" transform="translate(-1.71 -4.62)"/><path class="cls-1" d="M114.14,45.19H108V27.46a7.71,7.71,0,0,0-1.35-5,5.16,5.16,0,0,0-4.26-1.64c-2.57,0-4.46.76-5.67,2.3s-1.81,4.12-1.81,7.73V45.19H88.77V4.62H94.9v10.3a47.81,47.81,0,0,1-.32,5.29H95A8.51,8.51,0,0,1,98.46,17a11.14,11.14,0,0,1,5.2-1.15q10.49,0,10.48,10.56Z" transform="translate(-1.71 -4.62)"/><path class="cls-1" d="M145.16,34.84a9.59,9.59,0,0,1-3.67,8q-3.68,2.9-10.15,2.89a24.13,24.13,0,0,1-10.58-2V37.81a28.55,28.55,0,0,0,5.54,1.93,23.47,23.47,0,0,0,5.46.71q3.7,0,5.46-1.41A4.58,4.58,0,0,0,139,35.26a4.73,4.73,0,0,0-1.61-3.63q-1.62-1.48-6.68-3.52c-3.47-1.41-5.93-3-7.35-4.82a10.19,10.19,0,0,1-2.14-6.52,9.12,9.12,0,0,1,3.39-7.51q3.39-2.74,9.1-2.74a26.75,26.75,0,0,1,10.9,2.4l-2,5.08a23.91,23.91,0,0,0-9.08-2.13A6.93,6.93,0,0,0,129,13.18a4.31,4.31,0,0,0-1.57,3.48,4.92,4.92,0,0,0,.63,2.55,6.35,6.35,0,0,0,2.06,2,34.21,34.21,0,0,0,5.16,2.48,27.8,27.8,0,0,1,6.15,3.26,9.53,9.53,0,0,1,2.87,3.41A10.28,10.28,0,0,1,145.16,34.84Z" transform="translate(-1.71 -4.62)"/><path class="cls-1" d="M166,45.71a10.1,10.1,0,0,1-8.5-3.93h-.37l-.18,21.36h-5.58V16.35h4.95c.14.54.43,1.83.86,3.86h.32a9.59,9.59,0,0,1,8.6-4.38,10,10,0,0,1,8.41,3.91q3,3.92,3,11t-3.06,11A10.1,10.1,0,0,1,166,45.71ZM164.5,20.84q-3.65,0-5.33,2.13t-1.68,6.84v.91c0,3.51.55,6.05,1.67,7.63s2.92,2.36,5.45,2.36a5.53,5.53,0,0,0,4.9-2.61q1.73-2.61,1.72-7.43c0-3.24-.57-5.68-1.71-7.34A5.7,5.7,0,0,0,164.5,20.84Z" transform="translate(-1.71 -4.62)"/><path class="cls-1" d="M202.14,45.19l-1.22-4h-.21a11.79,11.79,0,0,1-4.2,3.58,13.17,13.17,0,0,1-5.42,1,9.17,9.17,0,0,1-6.64-2.29,8.6,8.6,0,0,1-2.38-6.5,7.6,7.6,0,0,1,3.31-6.72q3.3-2.28,10.09-2.48l5-.16V26a5.83,5.83,0,0,0-1.29-4.13,5.28,5.28,0,0,0-4-1.37,13.94,13.94,0,0,0-4.25.65A33.59,33.59,0,0,0,187,22.71l-2-4.38a21.06,21.06,0,0,1,5.14-1.86,23.37,23.37,0,0,1,5.27-.64q5.49,0,8.3,2.4t2.81,7.53V45.19ZM193,41a7.58,7.58,0,0,0,5.36-1.87,6.76,6.76,0,0,0,2-5.22V31.42l-3.71.16c-2.88.1-5,.59-6.29,1.45a4.37,4.37,0,0,0-2,3.95,3.83,3.83,0,0,0,1.15,3A4.89,4.89,0,0,0,193,41Z" transform="translate(-1.71 -4.62)"/><path class="cls-1" d="M228.37,15.83a15,15,0,0,1,3,.26l-.6,5.71a11.49,11.49,0,0,0-2.71-.31,7.85,7.85,0,0,0-6,2.4,8.66,8.66,0,0,0-2.28,6.23V45.19h-6.13V16.35h4.8l.81,5.08h.31a11.48,11.48,0,0,1,3.75-4.09A8.84,8.84,0,0,1,228.37,15.83Z" transform="translate(-1.71 -4.62)"/><path class="cls-1" d="M241.62,30l3.47-4.33,8.71-9.28h7.07L249.26,28.74,261.6,45.19h-7.2l-9.26-12.65-3.36,2.77v9.88H235.7V4.62h6.08V24.41L241.46,30Z" transform="translate(-1.71 -4.62)"/><path class="cls-2" d="M18.55,63l-.6-2h-3l-.6,2h-1.9l2.94-8.34h2.15L20.45,63Zm-1-3.45c-.56-1.79-.87-2.81-.94-3s-.12-.42-.15-.56c-.12.49-.48,1.69-1.07,3.6Z" transform="translate(-1.71 -4.62)"/><path class="cls-2" d="M30.84,57.31a2.55,2.55,0,0,1-.84,2,3.6,3.6,0,0,1-2.38.71h-.76v3H25.1v-8.3h2.65a3.49,3.49,0,0,1,2.3.65A2.38,2.38,0,0,1,30.84,57.31Zm-4,1.32h.58a1.91,1.91,0,0,0,1.22-.33,1.33,1.33,0,0,0,.06-1.84,1.56,1.56,0,0,0-1.06-.3h-.8Z" transform="translate(-1.71 -4.62)"/><path class="cls-2" d="M32.7,63v-8.3h1.76v6.85h3.37V63Z" transform="translate(-1.71 -4.62)"/><path class="cls-2" d="M44.64,63l-.6-2H41l-.6,2h-1.9l2.93-8.34H43.6L46.54,63Zm-1-3.45c-.56-1.79-.87-2.81-.94-3s-.12-.42-.15-.56c-.13.49-.48,1.69-1.07,3.6Z" transform="translate(-1.71 -4.62)"/><path class="cls-2" d="M51.4,56.06a1.8,1.8,0,0,0-1.54.75,3.5,3.5,0,0,0-.54,2.08c0,1.85.69,2.78,2.08,2.78a6.62,6.62,0,0,0,2.12-.44v1.48a5.94,5.94,0,0,1-2.28.43A3.49,3.49,0,0,1,48.47,62a4.68,4.68,0,0,1-1-3.16A5.09,5.09,0,0,1,48,56.61a3.32,3.32,0,0,1,1.35-1.49,4,4,0,0,1,2.07-.52,5.63,5.63,0,0,1,2.44.58l-.57,1.43c-.31-.14-.63-.27-.94-.38A2.77,2.77,0,0,0,51.4,56.06Z" transform="translate(-1.71 -4.62)"/><path class="cls-2" d="M60.36,63H55.58v-8.3h4.78v1.44h-3V58h2.81v1.45H57.34v2.14h3Z" transform="translate(-1.71 -4.62)"/><path class="cls-2" d="M73.79,63h-2l-1.12-4.36q-.06-.24-.21-1c-.1-.49-.16-.82-.18-1,0,.2-.08.53-.17,1s-.16.78-.21,1L68.77,63h-2l-2.11-8.3h1.73l1.06,4.53c.19.84.32,1.56.4,2.18,0-.22.08-.55.16-1s.16-.8.23-1.05l1.21-4.65h1.66l1.21,4.65c.06.21.12.53.2,1s.14.8.19,1.11q0-.45.18-1.11c.08-.44.16-.8.22-1.07l1.06-4.53H75.9Z" transform="translate(-1.71 -4.62)"/><path class="cls-2" d="M84,63H82.29V59.44H79V63H77.24v-8.3H79V58h3.29V54.72H84Z" transform="translate(-1.71 -4.62)"/><path class="cls-2" d="M91.21,63H86.43v-8.3h4.78v1.44h-3V58H91v1.45H88.19v2.14h3Z" transform="translate(-1.71 -4.62)"/><path class="cls-2" d="M95,59.84V63H93.24v-8.3h2.42a4.13,4.13,0,0,1,2.5.61,2.44,2.44,0,0,1,.41,3.18,2.64,2.64,0,0,1-1.14.89c1.25,1.87,2.07,3.08,2.44,3.62h-2l-2-3.18Zm0-1.44h.57a2.22,2.22,0,0,0,1.23-.27,1,1,0,0,0,.4-.88.92.92,0,0,0-.41-.84,2.43,2.43,0,0,0-1.26-.25H95Z" transform="translate(-1.71 -4.62)"/><path class="cls-2" d="M106,63h-4.78v-8.3H106v1.44h-3V58h2.81v1.45H103v2.14h3Z" transform="translate(-1.71 -4.62)"/><path class="cls-2" d="M111.33,63v-8.3h1.76V63Z" transform="translate(-1.71 -4.62)"/><path class="cls-2" d="M122.36,58.79a4.11,4.11,0,0,1-1.16,3.14A4.77,4.77,0,0,1,117.82,63h-2.35v-8.3h2.61a4.43,4.43,0,0,1,3.16,1.07A4,4,0,0,1,122.36,58.79Zm-1.83.05c0-1.79-.78-2.68-2.36-2.68h-.94v5.41H118C119.69,61.57,120.53,60.66,120.53,58.84Z" transform="translate(-1.71 -4.62)"/><path class="cls-2" d="M129.16,63h-4.79v-8.3h4.79v1.44h-3V58H129v1.45h-2.81v2.14h3Z" transform="translate(-1.71 -4.62)"/><path class="cls-2" d="M136.27,63l-.61-2h-3L132,63h-1.89l2.93-8.34h2.15L138.16,63Zm-1-3.45c-.55-1.79-.87-2.81-.94-3s-.12-.42-.15-.56c-.12.49-.48,1.69-1.07,3.6Z" transform="translate(-1.71 -4.62)"/><path class="cls-2" d="M144.4,60.72a2.14,2.14,0,0,1-.81,1.77,3.52,3.52,0,0,1-2.25.65,5.31,5.31,0,0,1-2.35-.5V61a9.36,9.36,0,0,0,1.42.53,4.3,4.3,0,0,0,1.07.15,1.47,1.47,0,0,0,.88-.22.76.76,0,0,0,.31-.66.71.71,0,0,0-.13-.43,1.61,1.61,0,0,0-.4-.37,11.25,11.25,0,0,0-1.08-.56,5,5,0,0,1-1.14-.69,2.54,2.54,0,0,1-.61-.77,2.19,2.19,0,0,1-.23-1,2.14,2.14,0,0,1,.75-1.73,3.12,3.12,0,0,1,2.07-.63,4.93,4.93,0,0,1,1.23.15,9.08,9.08,0,0,1,1.23.43l-.57,1.37a8.11,8.11,0,0,0-1.1-.38,3.61,3.61,0,0,0-.85-.11,1.13,1.13,0,0,0-.77.24.73.73,0,0,0-.26.6.78.78,0,0,0,.1.41,1.27,1.27,0,0,0,.35.34,12.19,12.19,0,0,0,1.11.58,4.47,4.47,0,0,1,1.6,1.11A2.19,2.19,0,0,1,144.4,60.72Z" transform="translate(-1.71 -4.62)"/><path class="cls-2" d="M169.47,63l-.6-2h-3l-.6,2h-1.9l2.93-8.34h2.15l3,8.34Zm-1-3.45c-.56-1.79-.87-2.81-.94-3s-.12-.42-.15-.56q-.2.73-1.08,3.6Z" transform="translate(-1.71 -4.62)"/><path class="cls-2" d="M174.17,59.84V63h-1.76v-8.3h2.42a4.18,4.18,0,0,1,2.51.61,2.21,2.21,0,0,1,.81,1.88,2.27,2.27,0,0,1-.4,1.3,2.61,2.61,0,0,1-1.15.89q1.88,2.81,2.45,3.62h-2l-2-3.18Zm0-1.44h.57a2.2,2.2,0,0,0,1.23-.27,1,1,0,0,0,.4-.88.9.9,0,0,0-.41-.84,2.41,2.41,0,0,0-1.25-.25h-.54Z" transform="translate(-1.71 -4.62)"/><path class="cls-2" d="M184.87,63h-4.78v-8.3h4.78v1.44h-3V58h2.81v1.45h-2.81v2.14h3Z" transform="translate(-1.71 -4.62)"/><path class="cls-2" d="M192.83,63h-1.76V56.18h-2.25V54.72h6.27v1.46h-2.26Z" transform="translate(-1.71 -4.62)"/><path class="cls-2" d="M198.13,59.84V63h-1.76v-8.3h2.42a4.13,4.13,0,0,1,2.5.61,2.44,2.44,0,0,1,.41,3.18,2.64,2.64,0,0,1-1.14.89Q202.44,62.21,203,63h-1.95l-2-3.18Zm0-1.44h.57a2.24,2.24,0,0,0,1.23-.27,1,1,0,0,0,.4-.88.92.92,0,0,0-.41-.84,2.43,2.43,0,0,0-1.26-.25h-.53Z" transform="translate(-1.71 -4.62)"/><path class="cls-2" d="M209.13,63l-.6-2h-3l-.6,2H203l2.93-8.34h2.16L211,63Zm-1-3.45c-.56-1.79-.87-2.81-.94-3s-.12-.42-.15-.56c-.13.49-.48,1.69-1.07,3.6Z" transform="translate(-1.71 -4.62)"/><path class="cls-2" d="M219.44,63H217.2l-3.61-6.28h-.05c.07,1.11.11,1.9.11,2.37V63h-1.58v-8.3h2.23l3.6,6.22h0c-.05-1.08-.08-1.85-.08-2.29V54.72h1.58Z" transform="translate(-1.71 -4.62)"/><path class="cls-2" d="M226.44,60.72a2.14,2.14,0,0,1-.81,1.77,3.55,3.55,0,0,1-2.26.65,5.34,5.34,0,0,1-2.35-.5V61a9.77,9.77,0,0,0,1.42.53,4.36,4.36,0,0,0,1.07.15,1.5,1.5,0,0,0,.89-.22.78.78,0,0,0,.31-.66.71.71,0,0,0-.14-.43,1.45,1.45,0,0,0-.4-.37,9.16,9.16,0,0,0-1.08-.56,5.46,5.46,0,0,1-1.14-.69,2.7,2.7,0,0,1-.61-.77,2.19,2.19,0,0,1-.22-1,2.14,2.14,0,0,1,.75-1.73,3.07,3.07,0,0,1,2.06-.63,5.07,5.07,0,0,1,1.24.15,9.08,9.08,0,0,1,1.23.43l-.57,1.37a8.61,8.61,0,0,0-1.1-.38,3.69,3.69,0,0,0-.86-.11,1.08,1.08,0,0,0-.76.24.74.74,0,0,0-.27.6.7.7,0,0,0,.11.41,1.09,1.09,0,0,0,.34.34c.16.1.53.3,1.12.58A4.42,4.42,0,0,1,226,59.34,2.19,2.19,0,0,1,226.44,60.72Z" transform="translate(-1.71 -4.62)"/><path class="cls-2" d="M229.67,63h-1.73v-8.3h4.76v1.44h-3V58.3h2.82v1.44h-2.82Z" transform="translate(-1.71 -4.62)"/><path class="cls-2" d="M241.86,58.86a4.52,4.52,0,0,1-1,3.17A4.42,4.42,0,0,1,235,62a4.53,4.53,0,0,1-1-3.18,4.47,4.47,0,0,1,1-3.17,3.83,3.83,0,0,1,2.94-1.09,3.77,3.77,0,0,1,2.93,1.1A4.49,4.49,0,0,1,241.86,58.86Zm-6.06,0a3.44,3.44,0,0,0,.53,2.09,1.85,1.85,0,0,0,1.58.71c1.4,0,2.11-.93,2.11-2.8s-.7-2.81-2.1-2.81a1.85,1.85,0,0,0-1.58.71A3.42,3.42,0,0,0,235.8,58.86Z" transform="translate(-1.71 -4.62)"/><path class="cls-2" d="M245.35,59.84V63h-1.77v-8.3H246a4.15,4.15,0,0,1,2.5.61,2.47,2.47,0,0,1,.41,3.18,2.64,2.64,0,0,1-1.14.89q1.88,2.81,2.44,3.62h-1.95l-2-3.18Zm0-1.44h.56a2.26,2.26,0,0,0,1.24-.27,1,1,0,0,0,.39-.88.91.91,0,0,0-.4-.84,2.43,2.43,0,0,0-1.26-.25h-.53Z" transform="translate(-1.71 -4.62)"/><path class="cls-2" d="M254.78,63l-2-6.51h-.05c.07,1.32.11,2.21.11,2.65V63h-1.57v-8.3h2.39l2,6.35h0l2.09-6.35h2.39V63H258.5V59.09c0-.18,0-.4,0-.64s0-.89.08-1.93h0L256.4,63Z" transform="translate(-1.71 -4.62)"/><path class="cls-2" d="M267,63h-4.79v-8.3H267v1.44h-3V58h2.81v1.45H264v2.14h3Z" transform="translate(-1.71 -4.62)"/><path class="cls-2" d="M275.64,58.79a4.08,4.08,0,0,1-1.17,3.14A4.73,4.73,0,0,1,271.1,63h-2.35v-8.3h2.61a4.43,4.43,0,0,1,3.16,1.07A4,4,0,0,1,275.64,58.79Zm-1.83.05c0-1.79-.78-2.68-2.36-2.68h-.94v5.41h.76C273,61.57,273.81,60.66,273.81,58.84Z" transform="translate(-1.71 -4.62)"/></svg>