<svg id="Layer_1" data-name="Layer 1" xmlns="http://www.w3.org/2000/svg" viewBox="0 0 336.97 58.52"><defs><style>.cls-1{fill:#231f20;}.cls-2{fill:#aa182c;}</style></defs><polygon class="cls-1" points="278.93 17.39 292.02 17.39 303.69 29 291.95 40.66 278.93 40.66 290.45 28.96 278.93 17.39"/><polygon class="cls-1" points="336.97 17.39 323.88 17.39 312.22 29 323.95 40.66 336.97 40.66 325.45 28.96 336.97 17.39"/><polygon class="cls-1" points="319.59 0 319.59 13.09 307.98 24.76 296.32 13.02 296.32 0 308.01 11.52 319.59 0"/><polygon class="cls-1" points="319.59 58.05 319.59 44.95 307.98 33.29 296.32 45.03 296.32 58.05 308.01 46.52 319.59 58.05"/><path class="cls-1" d="M19.16,45.19H12.93V12.41H1.71V7.07H30.37v5.34H19.16Z" transform="translate(-1.71 -4.62)"/><path class="cls-1" d="M44.15,45.71q-6.72,0-10.52-3.92T29.83,31q0-7.07,3.52-11.11a12.19,12.19,0,0,1,9.68-4q5.72,0,9,3.47t3.31,9.54v3.31H36.15a9.49,9.49,0,0,0,2.26,6.46,7.93,7.93,0,0,0,6,2.25,22.39,22.39,0,0,0,4.76-.48,25.38,25.38,0,0,0,4.73-1.6v5a19.22,19.22,0,0,1-4.54,1.51A28.25,28.25,0,0,1,44.15,45.71ZM43,20.47a6.16,6.16,0,0,0-4.68,1.85,8.84,8.84,0,0,0-2.1,5.4H49.34a8,8,0,0,0-1.72-5.41A5.87,5.87,0,0,0,43,20.47Z" transform="translate(-1.71 -4.62)"/><path class="cls-1" d="M74,45.71q-6.55,0-9.95-3.82t-3.4-11q0-7.28,3.55-11.19t10.29-3.91a19.33,19.33,0,0,1,8.22,1.69l-1.85,4.93a18.56,18.56,0,0,0-6.42-1.51q-7.49,0-7.48,9.93,0,4.86,1.86,7.29a6.43,6.43,0,0,0,5.46,2.44,15.77,15.77,0,0,0,7.75-2v5.34a12.08,12.08,0,0,1-3.51,1.39A21.59,21.59,0,0,1,74,45.71Z" transform="translate(-1.71 -4.62)"/><path class="cls-1" d="M114.14,45.19H108V27.46a7.71,7.71,0,0,0-1.35-5,5.16,5.16,0,0,0-4.26-1.64c-2.57,0-4.46.76-5.67,2.3s-1.81,4.12-1.81,7.73V45.19H88.77V4.62H94.9v10.3a47.81,47.81,0,0,1-.32,5.29H95A8.51,8.51,0,0,1,98.46,17a11.14,11.14,0,0,1,5.2-1.15q10.49,0,10.48,10.56Z" transform="translate(-1.71 -4.62)"/><path class="cls-1" d="M145.16,34.84a9.59,9.59,0,0,1-3.67,8q-3.68,2.9-10.15,2.89a24.13,24.13,0,0,1-10.58-2V37.81a28.55,28.55,0,0,0,5.54,1.93,23.47,23.47,0,0,0,5.46.71q3.7,0,5.46-1.41A4.58,4.58,0,0,0,139,35.26a4.73,4.73,0,0,0-1.61-3.63q-1.62-1.48-6.68-3.52c-3.47-1.41-5.93-3-7.35-4.82a10.19,10.19,0,0,1-2.14-6.52,9.12,9.12,0,0,1,3.39-7.51q3.39-2.74,9.1-2.74a26.75,26.75,0,0,1,10.9,2.4l-2,5.08a23.91,23.91,0,0,0-9.08-2.13A6.93,6.93,0,0,0,129,13.18a4.31,4.31,0,0,0-1.57,3.48,4.92,4.92,0,0,0,.63,2.55,6.35,6.35,0,0,0,2.06,2,34.21,34.21,0,0,0,5.16,2.48,27.8,27.8,0,0,1,6.15,3.26,9.53,9.53,0,0,1,2.87,3.41A10.28,10.28,0,0,1,145.16,34.84Z" transform="translate(-1.71 -4.62)"/><path class="cls-1" d="M166,45.71a10.1,10.1,0,0,1-8.5-3.93h-.37l-.18,21.36h-5.58V16.35h4.95c.14.54.43,1.83.86,3.86h.32a9.59,9.59,0,0,1,8.6-4.38,10,10,0,0,1,8.41,3.91q3,3.92,3,11t-3.06,11A10.1,10.1,0,0,1,166,45.71ZM164.5,20.84q-3.65,0-5.33,2.13t-1.68,6.84v.91c0,3.51.55,6.05,1.67,7.63s2.92,2.36,5.45,2.36a5.53,5.53,0,0,0,4.9-2.61q1.73-2.61,1.72-7.43c0-3.24-.57-5.68-1.71-7.34A5.7,5.7,0,0,0,164.5,20.84Z" transform="translate(-1.71 -4.62)"/><path class="cls-1" d="M202.14,45.19l-1.22-4h-.21a11.79,11.79,0,0,1-4.2,3.58,13.17,13.17,0,0,1-5.42,1,9.17,9.17,0,0,1-6.64-2.29,8.6,8.6,0,0,1-2.38-6.5,7.6,7.6,0,0,1,3.31-6.72q3.3-2.28,10.09-2.48l5-.16V26a5.83,5.83,0,0,0-1.29-4.13,5.28,5.28,0,0,0-4-1.37,13.94,13.94,0,0,0-4.25.65A33.59,33.59,0,0,0,187,22.71l-2-4.38a21.06,21.06,0,0,1,5.14-1.86,23.37,23.37,0,0,1,5.27-.64q5.49,0,8.3,2.4t2.81,7.53V45.19ZM193,41a7.58,7.58,0,0,0,5.36-1.87,6.76,6.76,0,0,0,2-5.22V31.42l-3.71.16c-2.88.1-5,.59-6.29,1.45a4.37,4.37,0,0,0-2,3.95,3.83,3.83,0,0,0,1.15,3A4.89,4.89,0,0,0,193,41Z" transform="translate(-1.71 -4.62)"/><path class="cls-1" d="M228.37,15.83a15,15,0,0,1,3,.26l-.6,5.71a11.49,11.49,0,0,0-2.71-.31,7.85,7.85,0,0,0-6,2.4,8.66,8.66,0,0,0-2.28,6.23V45.19h-6.13V16.35h4.8l.81,5.08h.31a11.48,11.48,0,0,1,3.75-4.09A8.84,8.84,0,0,1,228.37,15.83Z" transform="translate(-1.71 -4.62)"/><path class="cls-1" d="M241.62,30l3.47-4.33,8.71-9.28h7.07L249.26,28.74,261.6,45.19h-7.2l-9.26-12.65-3.36,2.77v9.88H235.7V4.62h6.08V24.41L241.46,30Z" transform="translate(-1.71 -4.62)"/></svg>